<svg id="Layer_1" data-name="Layer 1" xmlns="http://www.w3.org/2000/svg" viewBox="0 0 1366 768"><defs><style>.cls-1{fill:none;stroke:#5d5d5d;stroke-miterlimit:10;stroke-width:4px;}.cls-2{fill:#5d5d5d;}</style></defs><title>evol</title><polygon class="cls-1" points="390.67 249.91 509.33 249.91 509.33 298.78 482.57 298.78 482.57 276.09 440.11 276.09 440.11 314.48 479.67 314.48 479.67 336.58 440.11 336.58 440.11 378.46 485.48 378.46 485.48 355.78 513.4 355.78 513.4 405.22 391.83 405.22 391.83 380.79 403.47 380.79 403.47 273.18 390.67 273.18 390.67 249.91"/><polygon class="cls-2" points="525.04 247.59 595.42 247.59 595.42 276.09 580.3 276.09 605.31 344.73 631.48 276.67 620.43 276.67 620.43 247.59 679.76 247.59 679.76 276.09 667.55 276.09 616.36 407.55 590.77 407.55 536.67 275.51 525.04 276.09 525.04 247.59"/><path class="cls-2" d="M762.94,243.52c-47.55,0-86.09,37.24-86.09,83.18s38.54,83.18,86.09,83.18S849,372.64,849,326.7,810.49,243.52,762.94,243.52Zm.29,130.3c-22.65,0-41-21.09-41-47.12s18.36-47.12,41-47.12,41,21.09,41,47.12S785.88,373.81,763.23,373.81Z"/><polygon class="cls-2" points="858.34 247.59 925.81 247.59 925.81 274.93 913.01 274.93 913.01 373.23 947.92 373.23 947.92 348.8 980.49 348.8 980.49 407.55 857.76 407.55 857.76 378.46 869.39 378.46 869.39 275.51 857.76 275.51 858.34 247.59"/><path class="cls-2" d="M388.3,500.09v-8.26h4.62V461.6H388.3v-8.35h44.32v16.21h-8.51V461.6H406.69v10.7H414v-4.7h6.81v17.1H414V480h-7.29v11.75h17.75v-8.67h8.51v17Z"/><path class="cls-2" d="M439.59,500.09v-8.26h3.81L456,476.59l-12-15.07h-3.73v-8.26h22.2v8.26H459l6.56,8.91,6.73-8.91H468.6v-8.26H489.5v8.26h-3.89L473.7,475.87l12.8,16h3.89v8.26H468v-8.26h3.65l-7.29-9.89-7.54,9.89h3.73v8.26Z"/><path class="cls-2" d="M506.6,500.09v-8.26h5.27V461.36H503.6v9.24h-8.83V453.26h47.81V470.6h-8.83v-9.24h-8.18v30.47h5.27v8.26Z"/><path class="cls-2" d="M548.49,491.83h4.62V461.6h-4.62v-8.35h28.28q9,0,14.22,3.36t5.23,10.57q0,9.32-9.56,12.32l7.7,12.24h4.7v8.35H584.23l-10.78-19H570v-8.35h5.75a6.45,6.45,0,0,0,4.82-1.62,6,6,0,0,0,1.58-4.37,4.81,4.81,0,0,0-1.58-3.77,6.51,6.51,0,0,0-4.5-1.42h-9.24v30.22h4.38v8.26H548.49Z"/><path class="cls-2" d="M603.59,500.09v-8.26h4.78L619.8,461.6h-4.54v-8.35h32.25v8.35h-4.62l11.59,30.22h4.7v8.26H635.35v-8.26h5.19l-2.67-8.27H623.36l-2.67,8.27h4.54v8.26Zm22.28-24.31h9.64l-4.46-14.18h-.49Z"/><path class="cls-2" d="M684.38,500.09,668,458.77h-5.75v-4.29h18.56v4.29h-6l12.88,34.11,12.72-34.11h-5.84v-4.29h17.34v4.29h-5.59l-16.21,41.33Z"/><path class="cls-2" d="M729.06,497.78a22.73,22.73,0,0,1-8.71-8.59,23.35,23.35,0,0,1-3.08-11.79,23.8,23.8,0,0,1,3.08-11.87,22.58,22.58,0,0,1,8.71-8.67,27.7,27.7,0,0,1,25.85,0,22.6,22.6,0,0,1,8.71,8.67,23.8,23.8,0,0,1,3.08,11.87,23.35,23.35,0,0,1-3.08,11.79,22.75,22.75,0,0,1-8.71,8.59,27.69,27.69,0,0,1-25.85,0Zm22.32-4.17a16.82,16.82,0,0,0,6.12-6.77,20.65,20.65,0,0,0,2.15-9.44,21.08,21.08,0,0,0-2.15-9.56A17.84,17.84,0,0,0,732.59,461a16.68,16.68,0,0,0-6.08,6.89,21.68,21.68,0,0,0-2.11,9.6,20.9,20.9,0,0,0,2.11,9.48,16.31,16.31,0,0,0,6.08,6.69,17.41,17.41,0,0,0,9.4,2.47A17.21,17.21,0,0,0,751.39,493.61Z"/><path class="cls-2" d="M773.91,500.09V495.8h6.32v-37h-6.32v-4.29H793.2v4.29h-6.32v37h19v-14h5.35v18.31Z"/><path class="cls-2" d="M826.22,496.2q-4.66-4.7-4.66-12.64V458.77h-6.08v-4.29H834.2v4.29h-6.08v25.69a11,11,0,0,0,3.36,8.51q3.36,3.08,9.28,3.08,6.4,0,9.93-3.08a10.8,10.8,0,0,0,3.53-8.59V458.77h-6v-4.29H866v4.29H859.8v25.36q0,8.19-5.23,12.48t-14,4.29Q830.88,500.9,826.22,496.2Z"/><path class="cls-2" d="M870.83,500.09V495.8H877v-37h-6.16v-4.29H886.3l14.91,32,14.18-32h15.72v4.29H925v37h6.16v4.29H912.72V495.8h5.91V459.9l-17.18,37.84h-2.11L881.93,459.9v35.9h5.92v4.29Z"/><path class="cls-2" d="M937.51,500.09V495.8h6.32v-37h-6.32v-4.29h39.71V468h-5.11v-9.24H950.48v15.48h14.18V468.9H968v15.23h-3.32V478.7H950.48v17.1h22v-9.48h5.1v13.78Z"/></svg>