<svg id="Layer_1" data-name="Layer 1" xmlns="http://www.w3.org/2000/svg" viewBox="0 0 1366 768"><defs><style>.cls-1{fill:#5d5d5d;}</style></defs><title>fit4</title><polygon class="cls-1" points="429.78 468.71 429.78 317.46 446.3 300.94 586.11 300.94 586.11 345.43 493.96 345.43 493.96 361.95 586.11 361.95 586.11 400.71 493.33 400.71 493.33 468.71 429.78 468.71"/><rect class="cls-1" x="603.9" y="361.31" width="67.36" height="107.4"/><rect class="cls-1" x="604.47" y="300.94" width="67.36" height="45.29"/><polygon class="cls-1" points="847.3 299.84 689.7 299.84 689.7 346.24 734.82 346.24 734.82 469.52 785.02 470.16 801.54 452.36 801.54 346.24 847.3 346.24 847.3 299.84"/><path class="cls-1" d="M971.22,400.89v-101H910.85L827,400.89v39.4H917.2v29.23h54.65v-28h19.7V400.89Zm-54.65.64-34.32-.64,34.32-43.21Z"/></svg>