<svg id="Layer_1" data-name="Layer 1" xmlns="http://www.w3.org/2000/svg" viewBox="0 0 1366 768"><defs><style>.cls-1{fill:#5d5d5d;}</style></defs><title>kabolt</title><path class="cls-1" d="M725.68,394.38c-6.87-5.92-14.11-4.67-20.86.38-8.17,6.1-16.13,12.48-24.82,19.24-4-4.43-7.35-8.47-11-12.18-11.21-11.27-18.72-10.75-31.46-1.46-20.66,15.06-42.16,29-63.3,43.36l-2.13-2.55c2-3,3.89-6.17,6.18-9,41.14-50.56,89-94.52,136.3-139.06,3.07-2.9,4.3-7.75,6.39-11.69-4.92-2.17-9.74-5.71-14.78-6.06-3.9-.27-8.59,2.81-12.06,5.52-26.93,21-53.89,42-80.35,63.65-27.33,22.33-49.42,49.27-67.14,79.79-1.12,1.94-2.38,4.35-4.21,5.24-23.84,11.6-47.63,23.33-71.87,34.05-4,1.78-10.08-1.05-15.2-1.76L454,458.08c10.28-13.5,20.32-27.18,30.91-40.43,9.7-12.13,6.39-23.29-9.19-26-5.33-.93-12.81.63-16.88,4-24.36,20.13-53.38,11.67-80.76,14.41,3.15-2.94,6.8-4.29,10.43-5.69C434,386.78,472.86,359.69,506,324c7.2-7.76,4.05-14.2-1.85-19.59s-11.59-2.83-16.76,2.55c-14.74,15.33-29.21,31-44.73,45.47-25,23.33-56,35.52-88.93,43.91,3.37-3,6.71-6,10.12-8.92,30.13-25.78,59.46-52.18,78.95-87.68,4.08-7.44,2.42-11.91-2.83-16.69-9.22-8.37-17-7.39-24.47,3.19-15.82,22.29-31.48,44.69-47.37,66.93-5.74,8-11.71,15.92-18,23.54-28.42,34.55-57,68.93-85.44,103.5-3.07,3.74-8.92,8.64-1.72,13.06,6.29,3.86,13.37,5.23,18.94-2.85,13.14-19,26.46-38,40.24-56.57,2.24-3,7.13-5.42,11-5.68,20.87-1.41,41.8-2,62.7-3,5.94-.3,11.84-1.26,17.76-1.92-8.26,8.44-16.89,14.6-25.32,21-7.6,5.79-8.08,14.73.18,19.44,5.33,3,13.15,4.73,18.91,3.28,9.1-2.29,17.41-7.73,25.89-11.76.76,11.36,6.94,22.29,16.28,24.15,8.69,1.73,18.93,3.45,26.72.5,21.09-8,41.24-18.49,61.36-27.8,4.44,20.3,23.35,23.4,38.5,10.44,21-18,44.67-32.77,67.37-48.69,6.69-4.69,13.64-4.25,19.77,1.6,6.7,6.39.28,11.16-2.5,15.86-5.23,8.82-11.68,16.92-16.76,25.81-6.65,11.64-3.52,19.41,9.61,21.47,6,.93,14.08-.92,18.77-4.61a304.11,304.11,0,0,0,34.13-31.67c8.16-8.76,14.64-19.1,21.8-28.8C733.57,406.31,732,399.79,725.68,394.38ZM644,335.69l-52.46,59L588.81,392C599.61,373.69,635.73,339.29,644,335.69ZM409.65,451.36l-3.14-4.19h0l9-6.16L444,421.54l2.67,3.8Zm257.33,6c12.28-17.94,23.13-37.23,43.54-47.53C696,425.72,690,449.56,667,457.38Z"/><path class="cls-1" d="M1101.9,380.83c-1.77-1.6-4.93-1.93-7.54-2.31-27.8-4.08-55.52-8.93-83.45-11.8-23.66-2.44-47.56-2.56-74.82-3.87,7.52-5.57,12.44-9.36,17.5-13,10.23-7.26,20.8-14.1,30.65-21.84,2.67-2.1,5.23-7.46,4.33-10.14-1-2.89-6.27-6.4-9.32-6.09-6.58.68-13.74,2.36-19.2,5.89C942.53,329,925,340.52,908.78,353.59c-10.18,8.21-19.78,14.25-33.38,13.7-7.85-.32-16,1.28-23.63,3.38-4.36,1.2-8.63,4.59-11.62,8.11-1.72,2-1.87,6.75-.7,9.36.75,1.67,5.17,2.31,8,2.33,5,0,10.06-.74,16.13-1.27-19,28.19-83.42,69.27-104.89,65.7,5.16-6.59,8.74-12.45,13.51-17.08q69.53-67.58,139.31-134.92c2.07-2,4.25-5.74,3.73-8.09-.55-2.51-3.89-5.16-6.61-6.32-11.31-4.82-20.07,2.2-28.07,8.09-19.44,14.3-38.67,29-57.06,44.59-26.39,22.39-52.59,45.54-69.85,76C744,434,730.06,444.32,714.35,453.68c-6.53,3.89-13.59,7.22-19.26,12.14-4.41,3.82-7,9.69-10.46,14.65l3.26,2.69c19.08-1.67,30.13-18.94,47.19-25.84.64,2.23,1.2,4,1.63,5.73,4.44,18.2,14.38,22.31,30.37,12.18,7.68-4.87,14.8-10.62,22.42-15.58,11.48-7.46,23.19-14.58,34.8-21.84-3.85,7.8-9,13.7-13.78,19.85-7.19,9.21-6.31,12.58,4.62,19.5,9.74,6.17,13.58,5,18.84-4.28,17.72-31.43,40.65-58.71,67.21-83a14.84,14.84,0,0,1,8.08-3.18c43.81-4.49,87.39-.46,130.9,4.21,19.27,2.07,38.38,5.67,57.67,7.38,3.73.33,8-4.89,12-7.55C1107.22,387.4,1105,383.62,1101.9,380.83Zm-246.23-48,1.87,1.71-69.73,68-1.7-1.69Z"/></svg>