<svg id="Layer_1" data-name="Layer 1" xmlns="http://www.w3.org/2000/svg" viewBox="0 0 1366 768"><defs><style>.cls-1{fill:#5d5d5d;}</style></defs><title>kashima</title><path class="cls-1" d="M511.45,474.78c-4.69,2.08-9.34,5.86-14.07,6-27.87.57-55.76.12-83.63.41-7.33.08-11.12-3.49-14.44-9.35-13.7-24.18-27.67-48.21-41.58-72.27a20,20,0,0,0-7-7.71q0,38.46,0,76.91c0,14.24,0,14.24-14.31,14.28-2.75,0-5.52-.16-8.26.06-8.09.65-10.88-3.13-10.85-11,.19-54,0-108.08.14-162.12,0-10.32,13.8-24.59,23-25,7.6-.37,10.46,2.59,10.38,10.17-.25,24.78-.09,49.56-.08,74.34,0,3.67,0,7.34,1.85,11.72,1.9-3,3.93-5.92,5.69-9,13.53-23.5,27.21-46.92,40.38-70.63,4.17-7.51,9.38-10.65,18.1-10.49,26.49.47,53-.13,79.5.43,5.16.11,10.25,3.59,15.37,5.52l-1.09,4.34c-17.31,0-34.64.57-51.92-.19-12.52-.55-20.48,3.86-26.41,15.11C422.13,335.38,411,354,399.88,372.51c-5.53,9.22-5.92,17.54-.27,26.95,11.84,19.71,23.11,39.76,34.44,59.78,4.46,7.89,10.5,12,19.95,11.76,18.57-.4,37.15-.12,55.73-.12Z"/><path class="cls-1" d="M522.3,323.64c-4,0-7.07-.05-10.15,0-32.29.66-22.24-4.71-39.07,23.18-4.43,7.34-7.77,15.45-12.93,22.21-8.91,11.67-9,22-.24,34.08,8.37,11.63,14.92,24.62,21.79,37.28,3.17,5.83,7.09,8.57,13.87,8.21,8.84-.47,17.72-.11,26.84-.11-.51,8.33-5.4,10.61-11.83,10.66-17.89.14-35.79.53-53.65-.17-3.94-.15-9.24-3.44-11.33-6.86q-18-29.41-34.38-59.75c-1.71-3.16-1.49-8.92.27-12.16q16.69-30.73,34.77-60.7c1.88-3.1,7-5.82,10.71-5.95,17.87-.6,35.77-.21,53.65-.26C516.91,313.29,521.22,315.45,522.3,323.64Z"/><path class="cls-1" d="M531.51,400.41c-7.07,0-15.74-8.11-15.48-14.47.25-6.18,8.56-13.83,15.05-13.86,7.33,0,15.57,7.85,15.23,14.57S538.3,400.42,531.51,400.41Z"/><path class="cls-1" d="M631.05,311.18v18.2a2.47,2.47,0,0,1-.62,1.62q-6.33,6-17.2,6a28.67,28.67,0,0,1-10-1.62,19.65,19.65,0,0,1-12.08-12.08,31.49,31.49,0,0,1,0-19.91,19.59,19.59,0,0,1,12.08-12.11,28.69,28.69,0,0,1,10-1.61q9.31,0,15.34,4.53L626,297.71Q621.05,294,613.23,294q-9.44,0-14.38,5t-4.94,14.35q0,9.44,4.94,14.41t14.38,5q8.51,0,13.48-4.29v-16Z"/><path class="cls-1" d="M656,294.42v14.53h20.37l-1.3,4.35H656v19h25v4.35H653.84a2.23,2.23,0,0,1-2.17-2.17V292.24a2,2,0,0,1,.65-1.49,2.14,2.14,0,0,1,1.52-.62H681v4.29Z"/><path class="cls-1" d="M733.09,337a2,2,0,0,1-1.74-.93l-26.15-37.33v37.89h-4.35V291.87a2.21,2.21,0,0,1,.4-1.27,1.88,1.88,0,0,1,1.09-.78,2,2,0,0,1,1.37,0,2.09,2.09,0,0,1,1.06.81L731,328V290.13h4.29v44.72a2.17,2.17,0,0,1-.4,1.3,2.26,2.26,0,0,1-1.09.81A3,3,0,0,1,733.09,337Z"/><path class="cls-1" d="M789.11,290.13v34a11.23,11.23,0,0,1-4.44,9.47Q780.23,337,772.28,337t-12.36-3.39a11.25,11.25,0,0,1-4.41-9.47v-34h4.35v34a7.21,7.21,0,0,0,1.27,4.47,8.78,8.78,0,0,0,3.17,2.61,12.87,12.87,0,0,0,4.07,1.21,27.54,27.54,0,0,0,7.83,0,12.88,12.88,0,0,0,4.07-1.21,9.07,9.07,0,0,0,3.2-2.61,7.09,7.09,0,0,0,1.3-4.47v-34Z"/><path class="cls-1" d="M814.39,290.13v46.52H810V290.13Z"/><path class="cls-1" d="M870.41,337a2,2,0,0,1-1.74-.93l-26.15-37.33v37.89h-4.35V291.87a2.21,2.21,0,0,1,.4-1.27,1.88,1.88,0,0,1,1.09-.78,2,2,0,0,1,1.37,0,2.09,2.09,0,0,1,1.06.81L868.3,328V290.13h4.29v44.72a2.17,2.17,0,0,1-.4,1.3,2.26,2.26,0,0,1-1.09.81A3,3,0,0,1,870.41,337Z"/><path class="cls-1" d="M897.05,294.42v14.53h20.37l-1.3,4.35H897.05v19h25v4.35H894.88a2.23,2.23,0,0,1-2.17-2.17V292.24a2,2,0,0,1,.65-1.49,2.14,2.14,0,0,1,1.52-.62H922v4.29Z"/><path class="cls-1" d="M602.61,382.08a3,3,0,0,1-.09-.73V363.5a1,1,0,0,0-1-1h-3.87l-8.07,7.14v22.87Z"/><path class="cls-1" d="M644.77,411.8l-29-23.87a1,1,0,0,1,0-1.65l26.81-22a1,1,0,0,0-.58-1.83h-7a2.92,2.92,0,0,0-1.68.53l-43.76,34.77v14.83a1,1,0,0,0,1,1h9.93a1,1,0,0,0,1-1V396.11a2.92,2.92,0,0,1,4.63-2.38l25,19.35a2.92,2.92,0,0,0,1.7.55h11.36A1,1,0,0,0,644.77,411.8Z"/><path class="cls-1" d="M602.4,439.32a2.91,2.91,0,0,1,2.53-1.49h36.23a2.92,2.92,0,0,0,2.92-2.92c0-1.61-1.81-2.92-.92-2.92H601.53l-12,10.59v7Z"/><path class="cls-1" d="M641.16,477.28H604.94a2.92,2.92,0,0,1-2.92-2.92V445.11L589.56,455v25.21c0,1.61,1.31,2.92,5.42,2.92h48.68c-.89,0,.42-1.31.42-2.92h0A2.92,2.92,0,0,0,641.16,477.28Z"/><path class="cls-1" d="M711.6,362.49H658.06l-6.42,6v42.19a2.92,2.92,0,0,0,2.92,2.92h4.1a2.92,2.92,0,0,0,2.92-2.92V397.44a2.92,2.92,0,0,1,2.92-2.92h37.13a2.92,2.92,0,0,1,2.92,2.92v13.27a2.92,2.92,0,0,0,2.92,2.92h4.1a2.92,2.92,0,0,0,2.92-2.92V365.41A2.92,2.92,0,0,0,711.6,362.49Zm-7,23.26a2.92,2.92,0,0,1-2.92,2.92H664.52a2.92,2.92,0,0,1-2.92-2.92V371.26a2.92,2.92,0,0,1,2.92-2.92h37.13a2.92,2.92,0,0,1,2.92,2.92Z"/><path class="cls-1" d="M780.05,385H739.27a2.92,2.92,0,0,1-2.92-2.92V371.26a2.92,2.92,0,0,1,2.92-2.92h40.78a2.92,2.92,0,0,0,0-5.85H733.31L726.4,369v18.94a2.92,2.92,0,0,0,2.92,2.92H770.1a2.92,2.92,0,0,1,2.92,2.92v11.08a2.92,2.92,0,0,1-2.92,2.92H729.32a2.92,2.92,0,0,0-2.92,2.92h0a2.92,2.92,0,0,0,2.92,2.92h50.73a2.92,2.92,0,0,0,2.92-2.92V387.93A2.92,2.92,0,0,0,780.05,385Z"/><path class="cls-1" d="M854.87,362.49h-4.1a2.92,2.92,0,0,0-2.92,2.92v15.71a2.92,2.92,0,0,1-2.92,2.92H807.79a2.92,2.92,0,0,1-2.92-2.92V365.41a2.92,2.92,0,0,0-2.92-2.92h-.88l-6.15,5.78v42.44a2.92,2.92,0,0,0,2.92,2.92h4.1a2.92,2.92,0,0,0,2.92-2.92V392.82a2.92,2.92,0,0,1,2.92-2.92h37.13a2.92,2.92,0,0,1,2.92,2.92v17.89a2.92,2.92,0,0,0,2.92,2.92h4.1a2.92,2.92,0,0,0,2.92-2.92V365.41A2.92,2.92,0,0,0,854.87,362.49Z"/><path class="cls-1" d="M877.42,362.49h-.86l-6.16,5.8v42.42a2.92,2.92,0,0,0,2.92,2.92h4.1a2.92,2.92,0,0,0,2.92-2.92V365.41A2.92,2.92,0,0,0,877.42,362.49Z"/><path class="cls-1" d="M970.95,362.49H901.56l-8.61,8.1v40.12a2.92,2.92,0,0,0,2.92,2.92H900a2.92,2.92,0,0,0,2.92-2.92V371.26a2.92,2.92,0,0,1,2.92-2.92h19.69a2.92,2.92,0,0,1,2.92,2.92v39.52a2.92,2.92,0,0,0,2.85,2.92l4.1.11a2.92,2.92,0,0,0,3-2.92V371.26a2.92,2.92,0,0,1,2.92-2.92H961a2.92,2.92,0,0,1,2.92,2.92v39.45a2.92,2.92,0,0,0,2.92,2.92h4.1a2.92,2.92,0,0,0,2.92-2.92V365.41A2.92,2.92,0,0,0,970.95,362.49Z"/><path class="cls-1" d="M1045.77,362.49H993.14l-7.33,6.89v41.32a2.92,2.92,0,0,0,2.92,2.92h4.1a2.92,2.92,0,0,0,2.92-2.92V397.44a2.92,2.92,0,0,1,2.92-2.92h37.13a2.92,2.92,0,0,1,2.92,2.92v13.27a2.92,2.92,0,0,0,2.92,2.92h4.1a2.92,2.92,0,0,0,2.92-2.92V365.41A2.92,2.92,0,0,0,1045.77,362.49Zm-7,23.26a2.92,2.92,0,0,1-2.92,2.92H998.68a2.92,2.92,0,0,1-2.92-2.92V371.26a2.92,2.92,0,0,1,2.92-2.92h37.13a2.92,2.92,0,0,1,2.92,2.92Z"/><path class="cls-1" d="M857.13,432H806l-8.85,8.32.25,0,23.08.5a1.79,1.79,0,0,1,1.79,1.79v38.71a1.79,1.79,0,0,0,1.79,1.79h6.37a1.79,1.79,0,0,0,1.79-1.79V442.63a1.79,1.79,0,0,1,1.79-1.79l23.15-.5a1.79,1.79,0,0,0,1.79-1.79v-4.77A1.79,1.79,0,0,0,857.13,432Z"/><path class="cls-1" d="M786.55,432h-49L726.6,442.26v37.95a2.92,2.92,0,0,0,2.92,2.92h4.1a2.92,2.92,0,0,0,2.92-2.92V466.94a2.92,2.92,0,0,1,2.92-2.92H776.6a2.92,2.92,0,0,1,2.92,2.92v13.27a2.92,2.92,0,0,0,2.92,2.92h4.1a2.92,2.92,0,0,0,2.92-2.92V434.91A2.92,2.92,0,0,0,786.55,432Zm-7,23.26a2.92,2.92,0,0,1-2.92,2.92H739.47a2.92,2.92,0,0,1-2.92-2.92V440.76a2.92,2.92,0,0,1,2.92-2.92H776.6a2.92,2.92,0,0,1,2.92,2.92Z"/><path class="cls-1" d="M711.74,432H663.49l-11.71,11v37.21a2.92,2.92,0,0,0,2.92,2.92h57a2.92,2.92,0,0,0,2.92-2.92V434.91A2.92,2.92,0,0,0,711.74,432Zm-7,42.37a2.92,2.92,0,0,1-2.92,2.92H664.65a2.92,2.92,0,0,1-2.92-2.92v-33.6a2.92,2.92,0,0,1,2.92-2.92h37.13a2.92,2.92,0,0,1,2.92,2.92Z"/></svg>